<?xml version="1.0" encoding="utf-8"?>
<!-- Generator: Adobe Illustrator 24.1.1, SVG Export Plug-In . SVG Version: 6.00 Build 0)  -->
<svg version="1.1" id="Capa_1" xmlns="http://www.w3.org/2000/svg" xmlns:xlink="http://www.w3.org/1999/xlink" x="0px" y="0px"
	 viewBox="0 0 104 104" style="enable-background:new 0 0 104 104;" xml:space="preserve">
<style type="text/css">
	.st0{fill:#7716F6;}
	.st1{fill:#FFFFFF;}
</style>
<g id="Capa_2_1_">
	<g id="Círculos">
		<circle class="st0" cx="52" cy="52" r="52"/>
	</g>
	<g id="Conjunto_B_de_iconos_compatibles_con_Android">
		<g id="Mail">
			<path class="st1" d="M52,32.2h23.4c0.8,0,1.6,0.2,2.3,0.5c0.6,0.3,0.7,0.6,0.1,1.1c-3.6,3-7.2,6.1-10.7,9.2
				c-4.8,4.1-9.5,8.1-14.3,12.2c-0.7,0.6-1,0.6-1.7,0c-8.3-7.2-16.7-14.3-25-21.5c-0.6-0.5-0.5-0.7,0.1-1.1c0.7-0.4,1.5-0.6,2.3-0.6
				L52,32.2z"/>
			<path class="st1" d="M52.1,71.8H28.8c-0.9,0-1.8-0.2-2.6-0.6c-0.6-0.3-0.6-0.6-0.1-1c4.5-3.8,8.9-7.6,13.4-11.4
				c1.7-1.4,3.4-2.8,5-4.3c0.5-0.4,0.8-0.5,1.3,0c1.8,1.6,3.6,3.1,5.4,4.8c0.6,0.6,1,0.7,1.7,0c1.8-1.7,3.6-3.2,5.4-4.8
				c0.4-0.4,0.7-0.5,1.2-0.1c6.1,5.2,12.2,10.5,18.3,15.7c0.8,0.7,0.8,0.9-0.2,1.4c-0.7,0.3-1.5,0.5-2.3,0.4L52.1,71.8z"/>
			<path class="st1" d="M24.4,68.4V35.7l3.7,3.2c4.9,4.2,9.8,8.5,14.7,12.7c0.6,0.5,0.8,0.8,0,1.4C36.8,58,30.9,63,25,68
				C24.9,68.1,24.7,68.4,24.4,68.4z"/>
			<path class="st1" d="M79.6,68.5l-4.3-3.6l-14.2-12c-0.4-0.3-0.7-0.5-0.1-1c6.1-5.3,12.2-10.6,18.2-15.9c0.1-0.1,0.2-0.1,0.3-0.2
				V68.5z"/>
		</g>
	</g>
</g>
</svg>
