<?xml version="1.0" encoding="utf-8"?>
<!-- Generator: Adobe Illustrator 24.1.1, SVG Export Plug-In . SVG Version: 6.00 Build 0)  -->
<svg version="1.1" id="Capa_1" xmlns="http://www.w3.org/2000/svg" xmlns:xlink="http://www.w3.org/1999/xlink" x="0px" y="0px"
	 viewBox="0 0 104 104" style="enable-background:new 0 0 104 104;" xml:space="preserve">
<style type="text/css">
	.st0{fill:#7716F6;}
	.st1{fill:#FFFFFF;}
</style>
<g id="Capa_2_1_">
	<g id="Círculos">
		<circle class="st0" cx="52" cy="52" r="52"/>
	</g>
	<g id="Conjunto_B_de_iconos_compatibles_con_Android">
		<path id="Ubicación" class="st1" d="M74.5,45.1C75,32.7,65.4,22.2,53,21.7C40.5,21.1,30,30.8,29.5,43.2c0,0.6,0,1.3,0,1.9
			c0,0-1.4,18.1,22.5,36.3C75.9,63.2,74.5,45.1,74.5,45.1z M52,57.2L52,57.2c-6.7,0-12.2-5.4-12.2-12.1S45.3,32.9,52,32.9
			s12.2,5.4,12.2,12.1c0,0,0,0,0,0C64.1,51.8,58.7,57.2,52,57.2C52,57.2,52,57.2,52,57.2z"/>
	</g>
</g>
</svg>
