<?xml version="1.0" encoding="utf-8"?>
<!-- Generator: Adobe Illustrator 24.1.1, SVG Export Plug-In . SVG Version: 6.00 Build 0)  -->
<svg version="1.1" id="Capa_1" xmlns="http://www.w3.org/2000/svg" xmlns:xlink="http://www.w3.org/1999/xlink" x="0px" y="0px"
	 viewBox="0 0 104 104" style="enable-background:new 0 0 104 104;" xml:space="preserve">
<style type="text/css">
	.st0{fill:#FFFFFF;}
	.st1{fill:#7716F6;}
</style>
<g id="Capa_2_1_">
	<g id="Círculos">
		<circle class="st0" cx="52" cy="52" r="52"/>
	</g>
	<g id="Conjunto_B_de_iconos_compatibles_con_Android">
		<path id="GitHub" class="st1" d="M85.7,55.5c-0.4,4.1-1.7,8.1-4,11.6c-3.3,4.8-8.2,7.2-13.6,8.6c-2,0.5-4.2,0.8-6.1,1.2
			c0.7,1.2,1.5,2.3,2.1,3.5c0.9,2.1,1.3,4.4,1.1,6.7c0,4.6,0,9.2,0,13.8c0,0.5,0.1,0.9,0.2,1.3c-8.8,2.3-18.1,2.3-26.9,0
			c0.2-0.5,0.2-1,0.2-1.4c0-1.4,0-2.7,0-4c0-1.8,0-3.5,0-5c-2.7,0-5.2,0.1-7.7,0c-2.9,0-5.6-1-7.8-2.9c-1.3-1.3-2.2-2.8-2.8-4.6
			c-1.3-2.9-2.9-5.5-5.8-7.2c-0.6-0.4-1.1-1-1.6-1.6c-0.5-0.6-0.2-1.2,0.5-1.2c1.2-0.1,2.3-0.1,3.5,0.2c2.8,0.9,5.2,2.8,6.6,5.4
			c1,1.7,2.3,3.1,3.9,4.1c3.2,2,6.6,1.4,10,0.5c1-0.1,1.7-1,1.7-1.9c0-0.5,0.2-1.1,0.4-1.6c0.7-1.4,1.5-2.8,2.3-4.2l-0.3-0.1
			c-3.1-0.5-6.1-1.2-9.1-2.1c-4.9-1.7-9-4.7-11.4-9.5c-1.7-3.4-2.7-7.1-3-10.8c-0.6-6.5,0.4-12.5,4.9-17.6c0.2-0.3,0.3-0.7,0.2-1.1
			c-1.2-3.7-1.2-7.7,0-11.3c0.7-2.5,1.2-2.7,3.6-2.2l0.2,0c3.9,1.1,7.5,2.7,10.9,4.9c0.5,0.3,1.1,0.4,1.6,0.3
			c8.2-2.1,16.7-2.1,24.9,0c0.6,0.1,1.1,0,1.6-0.3c2.7-1.3,5.3-2.8,8-4c1.6-0.8,3.4-1.2,5.2-1c0.3,0.1,0.7,0.3,0.8,0.5
			c1.6,4.2,2.2,8.5,0.7,12.9c-0.2,0.5-0.1,1.1,0.3,1.5c2.3,2.6,3.9,5.8,4.5,9.2C86.1,49.2,86.1,52.4,85.7,55.5z"/>
	</g>
</g>
</svg>
