<?xml version="1.0" encoding="utf-8"?>
<!-- Generator: Adobe Illustrator 24.1.1, SVG Export Plug-In . SVG Version: 6.00 Build 0)  -->
<svg version="1.1" id="Capa_1" xmlns="http://www.w3.org/2000/svg" xmlns:xlink="http://www.w3.org/1999/xlink" x="0px" y="0px"
	 viewBox="0 0 104 104" style="enable-background:new 0 0 104 104;" xml:space="preserve">
<style type="text/css">
	.st0{fill:#FFFFFF;}
	.st1{fill:#7716F6;}
</style>
<g id="Capa_2_1_">
	<g id="Círculos">
		<path class="st0" d="M7.3,0h89.4c4,0,7.3,3.3,7.3,7.3v89.4c0,4-3.3,7.3-7.3,7.3H7.3c-4,0-7.3-3.3-7.3-7.3V7.3C0,3.3,3.3,0,7.3,0z"
			/>
	</g>
	<g id="Conjunto_B_de_iconos_compatibles_con_Android">
		<g id="LinkedIn">
			<path class="st1" d="M56.2,44.4c1.3-1.2,2.6-2.6,4.1-3.7c2.5-1.7,5.4-2.7,8.4-2.8c4.1-0.5,8.2,0,12,1.6c3.8,1.8,6.8,5,8.2,9
				c1.4,3.6,2.2,7.5,2.2,11.3c0.2,9.5,0.2,19,0.2,28.4c0,2.2-1.1,3.2-3.2,3.2c-3.7,0-7.3,0-11,0c-2,0-3-1-3-3c0-8.1,0-16.3,0-24.4
				c0-1.9-0.3-3.8-0.8-5.7c-0.6-3.4-3.5-5.8-6.9-6c-3.6-0.5-7,1.4-8.5,4.7c-1.1,2.3-1.7,4.8-1.7,7.4v23.8c0,2.2-1,3.2-3.2,3.2
				c-3.5,0-7,0-10.5,0c-2.1,0-3.2-1-3.2-3.1V41.6c-0.2-1.5,0.9-2.8,2.3-3c0.2,0,0.4,0,0.7,0h10.9c1.4-0.2,2.8,0.9,2.9,2.3
				c0,0.2,0,0.4,0,0.6C56.2,42.5,56.2,43.5,56.2,44.4z"/>
			<path class="st1" d="M15.3,65V41.8c0-2.2,1-3.2,3.2-3.2h10.6c1.6-0.1,2.9,1,3.1,2.6c0,0.1,0,0.3,0,0.4c0,0.3,0,0.5,0,0.8v45.3
				c0,2.8-1,3.8-3.8,3.8c-3.3,0-6.6,0-9.8,0c-2.2,0-3.3-1.1-3.3-3.3L15.3,65z"/>
			<path class="st1" d="M34.5,23.5c0,6-4.9,10.8-10.9,10.8s-10.8-4.9-10.8-10.9c0-6,4.9-10.8,10.8-10.8
				C29.7,12.6,34.5,17.4,34.5,23.5C34.5,23.5,34.5,23.5,34.5,23.5z"/>
		</g>
	</g>
</g>
</svg>
