<svg xmlns="http://www.w3.org/2000/svg" viewBox="0 0 426.9 213.9"><defs><style>.cls-1{fill:#fff;}</style></defs><g id="Capa_2" data-name="Capa 2"><g id="Capa_1-2" data-name="Capa 1"><path class="cls-1" d="M141.3,172.2H57.9L44.1,212.1H0L75.3,2.4h48.9l75.3,209.7H155.1Zm-11.4-33.6L99.6,51,69.3,138.6Z"/><path class="cls-1" d="M373.5,65.7a49.17,49.17,0,0,0-19.8-20.1q-12.6-6.9-29.4-6.9-18.62,0-33,8.4a58,58,0,0,0-22.5,24q-8.1,15.6-8.1,36,0,21,8.25,36.6a58.28,58.28,0,0,0,22.95,24q14.69,8.4,34.2,8.4,24,0,39.3-12.75t20.1-35.55h-72V95.7H426.9v36.6a98.63,98.63,0,0,1-18,40.5,101.81,101.81,0,0,1-35.55,29.85Q351.58,213.9,324.6,213.9q-30.32,0-54.75-13.65a99.25,99.25,0,0,1-38.4-37.95Q217.5,138,217.5,107.1t13.95-55.35a99,99,0,0,1,38.4-38.1Q294.3,0,324.3,0q35.38,0,61.5,17.25t36,48.45Z"/></g></g></svg>